<?xml version="1.0" encoding="UTF-8" standalone="no"?>
<!-- Created with Inkscape (http://www.inkscape.org/) -->

<svg
   width="114.882mm"
   height="70.020294mm"
   viewBox="0 0 114.88201 70.020294"
   version="1.1"
   id="svg5"
   xml:space="preserve"
   inkscape:export-filename="logo.png"
   inkscape:export-xdpi="96"
   inkscape:export-ydpi="96"
   inkscape:version="1.2.2 (b0a8486541, 2022-12-01)"
   sodipodi:docname="litopri_logo.svg"
   xmlns:inkscape="http://www.inkscape.org/namespaces/inkscape"
   xmlns:sodipodi="http://sodipodi.sourceforge.net/DTD/sodipodi-0.dtd"
   xmlns="http://www.w3.org/2000/svg"
   xmlns:svg="http://www.w3.org/2000/svg"><sodipodi:namedview
     id="namedview7"
     pagecolor="#ffffff"
     bordercolor="#000000"
     borderopacity="0.25"
     inkscape:showpageshadow="2"
     inkscape:pageopacity="0.0"
     inkscape:pagecheckerboard="0"
     inkscape:deskcolor="#d1d1d1"
     inkscape:document-units="mm"
     showgrid="false"
     inkscape:zoom="0.43071226"
     inkscape:cx="-371.4777"
     inkscape:cy="-31.343431"
     inkscape:window-width="1800"
     inkscape:window-height="1054"
     inkscape:window-x="0"
     inkscape:window-y="0"
     inkscape:window-maximized="1"
     inkscape:current-layer="layer1" /><defs
     id="defs2" /><g
     inkscape:label="Layer 1"
     inkscape:groupmode="layer"
     id="layer1"
     transform="translate(-52.575166,-48.332112)"><path
       style="fill:#2d6a4f;stroke:none;stroke-width:0.264583"
       d="m 93.177221,113.76063 c -1.81901,0 -3.74412,-0.1823 -5.55122,0.0288 -0.51806,0.0606 -1.56395,0.42492 -1.04061,1.14618 0.60854,0.83793 3.03768,0.41248 3.946,0.41248 h 11.112499 c 0.8755,0 5.12339,0.53155 5.12339,-0.79375 0,-1.48616 -4.8977,-0.5461 -5.86846,-0.95329 -1.826149,-0.7665 -3.609439,-4.50718 -4.546599,-6.19046 8.318769,-2.36061 15.064579,-8.5008 16.814539,-17.19791 0.94006,-4.67255 -0.64797,-10.43279 2.85167,-14.259722 2.63975,-2.886604 8.02693,-4.282017 10.99794,-1.322917 1.43245,1.426629 2.42464,5.240069 5.05063,4.646609 2.84982,-0.64426 3.58748,-8.125086 4.50188,-10.495223 2.85671,2.262716 2.05026,7.341133 4.04072,10.304193 1.22978,1.83039 3.45731,1.29937 3.89678,-0.77919 h 0.26458 c 0.37492,1.93251 0.80407,6.12986 2.9218,6.9461 3.25226,1.25386 4.32117,-5.71579 4.48654,-7.73985 4.14893,1.30386 5.85364,-2.691345 9.26041,-4.137293 0.62786,-0.2667 3.90419,-0.437885 3.72507,-1.37795 -0.13361,-0.700087 -1.33509,-0.770202 -1.87298,-0.810948 -1.95554,-0.147637 -3.59992,-0.03969 -5.29141,-1.25095 -2.8911,-2.070364 -3.1615,-5.553339 -5.05512,-8.292835 -0.92181,-1.333764 -2.31775,-1.898385 -3.64781,-0.724958 -1.04511,0.922073 -1.23878,2.358231 -2.14525,3.365764 -0.17833,-2.042848 -1.1258,-3.921389 -1.83885,-5.820833 -0.47942,-1.277408 -1.00515,-2.538942 -1.72429,-3.704166 -2.1463,-3.477684 -5.78988,-4.726782 -8.21928,-0.79375 -3.34433,5.414168 -3.54674,15.360385 -10.97174,17.134416 -6.96992,1.665552 -10.47035,-7.329488 -16.93333,-7.849394 -8.453699,-0.679979 -12.071349,4.76885 -16.780929,10.82331 -4.29393,5.519737 -8.55319,11.077307 -12.753713,16.668747 -4.406899,5.86661 -8.866716,11.71972 -13.433424,17.4625 -0.94324,1.18613 -4.593696,4.67704 -4.173273,6.26586 0.222515,0.84059 2.274358,0.82736 2.955925,0.80936 2.964127,-0.0791 6.174846,-0.91704 8.73125,-2.43284 1.610254,-0.95462 3.164152,-2.15979 4.381764,-3.5851 0.866775,-1.01468 1.767946,-2.81808 2.97471,-3.44038 0.991661,-0.51144 3.281361,0.91228 4.285191,1.23375 1.64915,0.52838 4.04866,0.3773 5.51021,1.19671 1.68196,0.94271 3.09669,3.8616 4.01479,5.50889 M 126.51472,72.485593 v -0.529166 c 4.81012,-2.288911 6.48705,-8.079317 8.21531,-12.7 0.6387,-1.707621 1.60575,-5.694362 3.69093,-6.151033 2.12964,-0.466725 2.77892,4.008437 3.08266,5.357283 0.98187,4.363773 1.50204,8.822002 2.23018,13.229166 0.35136,2.126192 0.99536,4.390497 -0.37915,6.309517 -1.13427,1.58406 -2.11402,-0.51038 -2.43708,-1.54702 -0.74797,-2.399767 -0.96678,-5.152228 -2.11508,-7.407271 -0.43815,-0.86069 -1.38668,-1.974057 -2.47332,-1.512359 -2.19154,0.930804 -2.52545,5.604933 -3.12605,7.596717 -0.24448,0.810154 -0.63289,2.518303 -1.6645,2.666733 -0.73951,0.10636 -1.2401,-0.83317 -1.56712,-1.34514 -1.01124,-1.581943 -1.78752,-2.994554 -3.45678,-3.967427 M 142.6543,55.816844 c 1.50283,3.175264 3.83487,7.552266 3.93435,11.1125 0.0476,1.703916 -0.79798,3.349889 -1.02394,5.027083 h -0.26458 L 143.55018,61.10851 142.6543,55.816844 m 14.2875,15.610416 c -3.01387,0 -3.8698,0.746125 -5.55625,3.175 -1.57401,-2.697162 -3.65363,-6.659562 -2.62202,-9.789583 0.28231,-0.856985 0.86386,-3.095096 2.09285,-2.931319 0.93398,0.124619 1.42796,1.410759 1.78356,2.137569 1.26047,2.576512 3.13187,4.89876 4.30186,7.408333 m -76.464579,32.80833 c 1.57163,-4.08596 7.74965,-3.73882 11.37708,-5.37421 4.18412,-1.88622 8.500009,-4.91041 10.497879,-9.17787 2.34024,-4.99904 -0.25638,-11.34824 -5.999959,-12.34837 -2.34341,-0.40825 -4.36483,0.32438 -6.61458,0.7067 4.13993,-6.647917 10.25445,-15.826048 19.314579,-12.86933 1.91003,0.623094 4.73128,2.111375 5.45333,4.138084 0.31194,0.875506 -0.3011,1.772443 -0.36672,2.645833 -0.0751,1.000654 0.59135,1.938602 0.44159,2.910416 -0.30665,1.992577 -1.9939,3.671097 -2.27674,5.820837 -0.57467,4.37118 0.17728,8.47883 -1.63036,12.7 -5.28849,12.34942 -18.571889,15.61676 -30.196099,10.84791 M 106.93582,68.672154 c -3.52028,0.922337 -1.76213,6.047052 1.57665,4.963319 3.12526,-1.014413 1.51844,-5.774267 -1.57665,-4.963319 m 41.01014,0.903023 c 0.42122,2.446073 2.15927,4.307152 2.83925,6.614583 0.61939,2.10158 -1.11919,6.24999 -2.31008,7.9375 h -0.26458 c -2.93926,-4.64106 -2.07301,-9.620515 -0.79375,-14.552083 h 0.52916 m -40.22697,0.575733 c 1.30598,0.163248 1.05595,2.185988 -0.24395,2.023533 -1.30598,-0.163247 -1.05595,-2.185987 0.24395,-2.023533 m 11.91656,1.805517 v 0.264583 l -3.70416,1.5875 v -3.175 l 3.70416,1.322917 m 6.35,0.529166 -0.26458,0.264584 0.26458,-0.264584 m 33.07291,0.264584 c -1.23587,2.044435 -3.89599,4.162953 -6.35,3.439583 0.7837,-3.746235 3.08081,-3.439583 6.35,-3.439583 M 73.333472,99.73772 c 1.185863,-3.05885 3.715279,-1.91082 6.35,-2.16165 4.427269,-0.42122 8.628329,-1.50204 12.435419,-3.87482 0.92868,-0.57891 5.22102,-3.27898 4.47066,-4.66699 -0.44556,-0.82418 -3.67109,2.49529 -4.20608,2.89428 -4.80166,3.58219 -10.65186,4.10501 -16.404166,4.10501 1.61978,-2.84057 3.983566,-2.37464 6.879166,-3.02287 2.24155,-0.50191 4.44156,-1.44832 6.35,-2.73155 0.61727,-0.41513 3.94811,-2.63155 3.1959,-3.57161 -0.60034,-0.75036 -2.49475,1.39991 -2.93132,1.73778 -2.9792,2.30478 -6.82254,3.60918 -10.583329,3.6195 2.935549,-4.44209 6.848209,-10.61403 11.906249,-12.73254 4.73869,-1.98491 10.580159,0.3548 11.066459,5.85337 0.32888,3.7219 -2.521479,7.12206 -5.245629,9.25645 -6.02959,4.7244 -15.72974,7.09401 -23.283329,5.29564 M 107.7293,87.3023 h 1.32292 v -2.91042 c -1.39991,0.44212 -1.31921,1.61714 -1.32292,2.91042 m -13.758329,14.81667 c 1.21576,1.68407 4.13332,-0.0706 5.55625,-0.8255 4.441829,-2.35585 7.957609,-6.64581 8.995829,-11.60992 -1.97802,-0.46038 -2.56407,3.11811 -3.4663,4.49792 -2.85406,4.3643 -6.757459,5.65626 -11.085779,7.9375 M 75.185556,101.5898 c -2.906977,4.25556 -7.138194,12.16713 -12.7,12.17083 l 6.610879,-8.99583 2.924439,-3.40863 3.164682,0.23363 m 5.027085,0 c -2.273567,4.45399 -6.851387,9.91129 -11.906252,11.1125 l 5.590646,-7.40833 2.922058,-3.43218 3.393548,-0.27199 m 11.64166,6.35 c 3.47636,0.26247 5.33242,2.43787 6.61459,5.82083 -0.93239,0 -2.21986,0.2249 -3.08875,-0.15954 -1.28429,-0.56833 -3.83937,-4.30318 -3.52584,-5.66129"
       id="path350"
       sodipodi:nodetypes="cccssscccsccccccccccccccccsccccccccccccccccsccccccccccccscccccccccccccccccccccccsccccccccccccccccccccccccscccccccccccccccccccccccccccccccccc" /></g></svg>
